<mxfile host="app.diagrams.net" modified="2024-09-19T01:05:10.430Z" agent="Mozilla/5.0 (Windows NT 10.0; Win64; x64) AppleWebKit/537.36 (KHTML, like Gecko) Chrome/122.0.0.0 Safari/537.36" version="24.6.4" etag="5iqKfGPI5Ay8mED_2ou3" type="github">
  <diagram name="Page-1" id="gT_7ig1ah5wUtCVUwJhT">
    <mxGraphModel>
      <root>
        <mxCell id="0" />
        <mxCell id="1" parent="0" />
      </root>
    </mxGraphModel>
  </diagram>
</mxfile>
